# xmcd
# 
# Track frame offsets:
#     150
#     21410
#     42353
#     64631
#     88550
#     110605
#     125010
#     146613
#     173064
#     194689
#     219432
# 
# Disc length: 3193
# 
# Revision: 1
# Processed by: cddbd v1.5.2PL0 Copyright (c) Steve Scherf et al.
# Submitted via: fre:ac v1.0.17
# 
DISCID=a20c770b
DTITLE=Cafe Drechsler - Streamer
DYEAR=2013
DGENRE=Jazz
TTITLE0=Back To The Beginning
TTITLE1=Diva
TTITLE2=Like A Raving Loony
TTITLE3=Society Of Hurt Egos
TTITLE4=Streamer
TTITLE5=Not For Love Nor Money
TTITLE6=Give Sugar To The Apes
TTITLE7=Handle With Care
TTITLE8=The Spirit´s Dark Night
TTITLE9=Gift Of Groove
TTITLE10=Wake Up To The Present
EXTD=YEAR: 2013
EXTT0=
EXTT1=
EXTT2=
EXTT3=
EXTT4=
EXTT5=
EXTT6=
EXTT7=
EXTT8=
EXTT9=
EXTT10=
PLAYORDER=
